<svg xmlns="http://www.w3.org/2000/svg" viewBox="0 0 441.29 517.35"><defs><style>.cls-1,.cls-4{fill:#0c870c;}.cls-2{fill:#14c914;}.cls-3{fill:#fff;}.cls-4{stroke:#000;stroke-miterlimit:10;stroke-width:0.5px;}</style></defs><g id="Base"><circle class="cls-1" cx="220.65" cy="220.65" r="220.65"/><path class="cls-2" d="M7273.35,6922.11a221.22,221.22,0,0,0-52.84-6.38c-121.86,0-220.65,98.78-220.65,220.64a221.24,221.24,0,0,0,6.12,51.76C7138.8,7158.92,7243.49,7054.69,7273.35,6922.11Z" transform="translate(-6999.86 -6915.73)"/></g><g id="Calque_5" data-name="Calque 5"><path class="cls-3" d="M7110.69,7307.85c1.48,3.68,42.89-16.39,105.29-18.06,3.56-.09,8.83-.23,16,0,57.37,1.83,96.64,22.29,98.33,18.45.8-1.84-7.86-7.26-8.33-7.55-47.89-29.7-113.28-24.77-124.58-23.8-13.44,1.15-43,4.62-73.8,21.48C7120.6,7300,7109.93,7306,7110.69,7307.85Z" transform="translate(-6999.86 -6915.73)"/></g><g id="Millieu"><path class="cls-3" d="M7241,6964.76c-12.46,6.91-26.93,17.79-37.42,34.84-1.23,2-2.34,4-3.36,5.93q.78,133.43,1.55,266.84l13.81-.13,23.36.62,2.83.28Q7241.4,7119,7241,6964.76Z" transform="translate(-6999.86 -6915.73)"/></g><g id="Cote_claiver" data-name="Cote claiver"><path class="cls-3" d="M7153.79,7281c13.1-2.58,28.52-5.22,41.61-7.81.65-89-1-178-.38-267a258.3,258.3,0,0,0-39.87,64.45c-.81,1.88-1.58,3.75-2.33,5.62Q7153.32,7178.57,7153.79,7281Z" transform="translate(-6999.86 -6915.73)"/><path class="cls-4" d="M7095,7409.9a16,16,0,0,0,5.86.2,19.26,19.26,0,0,0,4.34-1.27c1.22-.55,2.3-1,3.25-1.49a4.54,4.54,0,0,1,2.72-.45c1.08.19,1.5,1,1.25,2.51a14.81,14.81,0,0,1-.81,2.81c-.41,1.08-.94,2.28-1.55,3.6a7.15,7.15,0,0,1-2.08,2.47,13.54,13.54,0,0,1-4,2.16,22,22,0,0,1-5.94,1.14,29.6,29.6,0,0,1-7.71-.62,32.24,32.24,0,0,1-8.25-2.87,19.73,19.73,0,0,1-6.7-5.42,19.21,19.21,0,0,1-3.67-8.35,27.75,27.75,0,0,1,.66-11.71,53.06,53.06,0,0,1,1.7-5.52,39,39,0,0,1,2.94-6.24,35.68,35.68,0,0,1,4.39-6,23.9,23.9,0,0,1,6-4.78,23.29,23.29,0,0,1,7.83-2.67,28.73,28.73,0,0,1,10.05.38,28.08,28.08,0,0,1,7.64,2.5,16.72,16.72,0,0,1,5,3.82,11.72,11.72,0,0,1,2.54,4.82,13.33,13.33,0,0,1,.2,5.38c-.51,3.18-1.87,5.34-4.1,6.47s-5.18,1.39-8.83.72a5.4,5.4,0,0,1-2.14-.66,1.19,1.19,0,0,1-.23-1.15c.28-1.66.47-3.16.65-4.41a10,10,0,0,0,0-3.18,3.42,3.42,0,0,0-1.11-2,5.63,5.63,0,0,0-2.58-1.07,8.75,8.75,0,0,0-4.44.16,10.07,10.07,0,0,0-3.49,2,14.41,14.41,0,0,0-2.71,3.17,27.9,27.9,0,0,0-2,3.81,28.24,28.24,0,0,0-1.4,3.86c-.36,1.26-.63,2.36-.83,3.3q-1.45,6.78.41,10.18C7089.09,7407.71,7091.47,7409.21,7095,7409.9Z" transform="translate(-6999.86 -6915.73)"/><path class="cls-4" d="M7128,7426.62c-3.13-.44-5.28-1.32-6.46-2.62a5.77,5.77,0,0,1-1.28-5c.15-1,.5-2.68,1-5.06s1.17-5.1,1.91-8.14,1.51-6.26,2.29-9.65,1.53-6.58,2.25-9.57,1.32-5.62,1.81-7.89.81-3.82.93-4.66.58-1.06,1.4-.94c1.69.25,2.53.37,4.23.6,3.12.43,5.14,1.35,6.06,2.78a8.9,8.9,0,0,1,.9,6c0,.25-.17,1-.41,2.38s-.58,3-1,5-.88,4.29-1.38,6.78-1,5.06-1.55,7.68-1.05,5.17-1.56,7.66-1,4.76-1.42,6.78-.79,3.71-1.07,5.07-.5,2.18-.58,2.47a1.75,1.75,0,0,1-.45.82,1.43,1.43,0,0,1-1,.12Z" transform="translate(-6999.86 -6915.73)"/><path class="cls-4" d="M7175.92,7388.42q-3,20.78-6.08,41.52c-.11.75-.45,1.1-1,1.06-1.85-.14-2.78-.21-4.63-.37q-4.72-.39-6.59-2.24a5.77,5.77,0,0,1-1.56-4.92c.07-.75.22-1.87.45-3.37s.52-3.24.88-5.25.74-4.2,1.16-6.56.84-4.74,1.28-7.15.87-4.8,1.28-7.19.79-4.59,1.13-6.63c-5-.46-7.54-.72-12.57-1.29-.57-.06-.82-.45-.74-1.15.28-1.66.43-2.5.71-4.16a10.2,10.2,0,0,1,.57-1.88,4.64,4.64,0,0,1,1.08-1.58,4.43,4.43,0,0,1,1.72-1,5.55,5.55,0,0,1,2.4-.2c11.53,1.09,23,2,34.56,2.62a1.63,1.63,0,0,1,.84.26.88.88,0,0,1,.35.85c-.2,1.77-.3,2.66-.51,4.43a6.28,6.28,0,0,1-1.46,3.59c-.8.9-2.39,1.29-4.75,1.16C7181,7388.76,7179.32,7388.66,7175.92,7388.42Z" transform="translate(-6999.86 -6915.73)"/><path class="cls-4" d="M7212.23,7432.81c-3.38,0-5.69-.66-6.9-1.87s-1.79-3-1.73-5.5c0-.85.1-2.23.25-4.14s.47-4.87.93-8.88l-1.1-2c-.32-.55-.63-1.14-.94-1.75s-.65-1.33-1-2.14-.81-1.83-1.37-3.05c-.87-1.89-1.83-4.08-2.9-6.58s-2.07-4.91-3-7.24-1.75-4.38-2.38-6.17a13.09,13.09,0,0,1-.91-3.36c.05-1.05,1.8-1.49,5.26-1.37a18.16,18.16,0,0,1,5.21.8,9.15,9.15,0,0,1,3.18,1.81,7.18,7.18,0,0,1,1.82,2.6c.4,1,.78,2,1.12,3.15.45,1.46.78,2.55,1,3.26s.36,1.29.49,1.74.26.9.42,1.33.37,1.09.65,2,.68,2.17,1.19,3.79,1.25,3.83,2.21,6.65c1.58-3.06,2.83-5.54,3.76-7.46s1.74-3.68,2.42-5.32,1.31-3.32,1.91-5.06,1.34-3.94,2.24-6.62a4.2,4.2,0,0,1,.95-1.86,2.49,2.49,0,0,1,1.58-.43c.26,0,1,0,2.14.07a22.25,22.25,0,0,1,3.65.49,11.6,11.6,0,0,1,3.5,1.33,3,3,0,0,1,1.64,2.59,11,11,0,0,1-.78,3.65q-.83,2.36-2.21,5.31t-3.27,6.23c-1.26,2.19-2.57,4.32-3.94,6.41s-2.74,4-4.11,5.74a43.2,43.2,0,0,1-3.79,4.29c-.05,1.2-.11,2.64-.19,4.3s-.18,3.3-.32,4.94-.26,3.11-.37,4.45-.18,2.25-.25,2.75a1.08,1.08,0,0,1-1.35,1.13Z" transform="translate(-6999.86 -6915.73)"/><path class="cls-4" d="M7246.67,7388.23a3.82,3.82,0,0,1-3.05-1.18,5.37,5.37,0,0,1-1.33-3.68,8.88,8.88,0,0,1,.34-2.84,7.12,7.12,0,0,1,1.29-2.51,7,7,0,0,1,2.24-1.81,7.66,7.66,0,0,1,3.2-.8,7.09,7.09,0,0,1,2.29.21,4.28,4.28,0,0,1,1.88,1,5.46,5.46,0,0,1,1.37,2.07,10.73,10.73,0,0,1,.69,3.43,18.55,18.55,0,0,1-.57,5.93,18.76,18.76,0,0,1-2.25,5.27,13.59,13.59,0,0,1-3.55,3.82,7.87,7.87,0,0,1-4.29,1.57,3,3,0,0,1-2.47-.69,2.9,2.9,0,0,1-.67-1.82c0-.2.25-.56.79-1.09s1.11-1.14,1.71-1.84a17.33,17.33,0,0,0,1.68-2.38A4.86,4.86,0,0,0,7246.67,7388.23Z" transform="translate(-6999.86 -6915.73)"/><path class="cls-4" d="M7284.21,7418.06q1.17-5.43,1.95-9.54c.52-2.73,1-5.55,1.51-8.44s1-6.13,1.44-9.73,1.09-8.08,1.78-13.44a3.75,3.75,0,0,1,.66-1.94,4.05,4.05,0,0,1,2.22-.7c.51-.07,1.32-.14,2.44-.21a13.93,13.93,0,0,1,3.44.21,9.65,9.65,0,0,1,3.24,1.21,3.85,3.85,0,0,1,1.77,2.91,22,22,0,0,1-.25,5.64q-.51,3.84-1.51,8.78t-2.37,10.34q-1.38,5.4-2.84,10.22t-2.76,8.48c-.86,2.44-1.51,4.15-2,5.1a3.62,3.62,0,0,1-3.11,1.8c-3.53.4-5.3.59-8.84.94a7.65,7.65,0,0,1-3.56-.38,6.74,6.74,0,0,1-2.48-1.7,10.46,10.46,0,0,1-1.75-2.61,28.55,28.55,0,0,1-1.27-3c-2.5-6.95-4.59-13-6.32-18.13s-3.13-9.45-4.23-12.92-1.92-6.15-2.47-8a26.09,26.09,0,0,1-.87-3.5c0-.55.35-1,1.16-1.32a14.65,14.65,0,0,1,4.14-.73,18.28,18.28,0,0,1,5.12.19,8.27,8.27,0,0,1,3.32,1.4,7,7,0,0,1,2,2.39,15.67,15.67,0,0,1,1.12,3.11c.22.82.49,1.83.77,3s.72,2.93,1.35,5.29,1.5,5.55,2.61,9.55S7282.29,7411.54,7284.21,7418.06Z" transform="translate(-6999.86 -6915.73)"/><path class="cls-4" d="M7334.41,7366.76a28.61,28.61,0,0,1,9.85-.49,16.85,16.85,0,0,1,7.49,2.95,18.72,18.72,0,0,1,5.35,6.18,36.14,36.14,0,0,1,3.42,9.15,52,52,0,0,1,1.09,6.48,36.47,36.47,0,0,1,.05,7.32,31.37,31.37,0,0,1-1.63,7.46,22.25,22.25,0,0,1-4,6.93,25.87,25.87,0,0,1-6.95,5.7,33.44,33.44,0,0,1-10.52,3.68,29.82,29.82,0,0,1-11.81.23,17.48,17.48,0,0,1-13-10.71,37.44,37.44,0,0,1-2.52-9.07,46.43,46.43,0,0,1-.3-11.59,27.82,27.82,0,0,1,3.18-10.62,25.23,25.23,0,0,1,7.52-8.44A32.38,32.38,0,0,1,7334.41,7366.76Zm.68,11.79a11.51,11.51,0,0,0-4.53,1.84,10.4,10.4,0,0,0-2.89,3.11,13.3,13.3,0,0,0-1.57,3.89,26,26,0,0,0-.59,4.21,28.45,28.45,0,0,0,.07,4c.11,1.28.26,2.41.44,3.4.8,4.51,2.2,7.66,4.24,9.43a8.58,8.58,0,0,0,7.66,1.79,8.78,8.78,0,0,0,5.69-3.4,15.54,15.54,0,0,0,2.61-6,25.37,25.37,0,0,0,.47-6.73,40.16,40.16,0,0,0-.72-5.67,16.46,16.46,0,0,0-3.77-8.1C7340.46,7378.55,7338.1,7378,7335.09,7378.55Z" transform="translate(-6999.86 -6915.73)"/></g><g id="Couris"><path class="cls-3" d="M7246.05,7273.79c13.59,2.93,27.18,4.24,40.77,7.16V6932.89a126.6,126.6,0,0,0-36.13,22.45c-1.24,1.11-2.45,2.23-3.61,3.35Q7246.57,7116.25,7246.05,7273.79Z" transform="translate(-6999.86 -6915.73)"/></g></svg>